HIERARCHY
ROOT Hip
{
	OFFSET 0.000000 0.000000 0.000000 
	CHANNELS 6 Xposition Yposition Zposition Xrotation Yrotation Zrotation
	JOINT LowerSpine
	{
		OFFSET 0.000000 9.015400 -4.878700 
		CHANNELS 3 Xrotation Yrotation Zrotation
		JOINT MiddleSpine
		{
			OFFSET 0.000000 8.227200 0.429800 
			CHANNELS 3 Xrotation Yrotation Zrotation
			JOINT Chest
			{
				OFFSET 0.000000 10.180300 -2.266000 
				CHANNELS 3 Xrotation Yrotation Zrotation
				JOINT Neck
				{
					OFFSET -0.000100 29.121000 3.317500 
					CHANNELS 3 Xrotation Yrotation Zrotation
					JOINT Head
					{
						OFFSET 0.000000 9.353800 2.394300 
						CHANNELS 3 Xrotation Yrotation Zrotation
						End Site
						{
							OFFSET -0.000100 18.226500 -1.149700 
						}
					}
				}
				JOINT LClavicle
				{
					OFFSET 2.316100 22.139000 7.585000 
					CHANNELS 3 Xrotation Yrotation Zrotation
					JOINT LShoulder
					{
						OFFSET 13.530800 3.175600 -5.138400 
						CHANNELS 3 Xrotation Yrotation Zrotation
						JOINT LForearm
						{
							OFFSET 28.742001 -0.102000 -0.249000 
							CHANNELS 3 Xrotation Yrotation Zrotation
							JOINT LHand
							{
								OFFSET 23.976999 0.069500 -0.143600 
								CHANNELS 3 Xrotation Yrotation Zrotation
								JOINT LFinger1
								{
									OFFSET 9.292800 0.812700 2.581100 
									CHANNELS 3 Xrotation Yrotation Zrotation
									JOINT LFinger11
									{
										OFFSET 3.476000 -0.847600 0.612500 
										CHANNELS 3 Xrotation Yrotation Zrotation
										JOINT LFinger12
										{
											OFFSET 2.373000 -0.578800 0.418200 
											CHANNELS 3 Xrotation Yrotation Zrotation
											End Site
											{
												OFFSET 1.688600 -0.504100 0.273900 
											}
										}
									}
								}
								JOINT LFinger2
								{
									OFFSET 9.431500 0.938500 0.224700 
									CHANNELS 3 Xrotation Yrotation Zrotation
									JOINT LFinger21
									{
										OFFSET 4.297800 0.012000 -0.025400 
										CHANNELS 3 Xrotation Yrotation Zrotation
										JOINT LFinger22
										{
											OFFSET 2.382300 0.007300 -0.014500 
											CHANNELS 3 Xrotation Yrotation Zrotation
											End Site
											{
												OFFSET 2.139700 -0.151100 0.002900 
											}
										}
									}
								}
								JOINT LFinger3
								{
									OFFSET 8.938300 0.626400 -2.114600 
									CHANNELS 3 Xrotation Yrotation Zrotation
									JOINT LFinger31
									{
										OFFSET 3.899800 -0.197400 -0.244200 
										CHANNELS 3 Xrotation Yrotation Zrotation
										JOINT LFinger32
										{
											OFFSET 2.222300 -0.111800 -0.139600 
											CHANNELS 3 Xrotation Yrotation Zrotation
											End Site
											{
												OFFSET 1.964900 -0.241600 -0.092900 
											}
										}
									}
								}
								JOINT LFinger4
								{
									OFFSET 8.294400 -0.630300 -3.652000 
									CHANNELS 3 Xrotation Yrotation Zrotation
									JOINT LFinger41
									{
										OFFSET 2.398800 -0.500200 -0.662200 
										CHANNELS 3 Xrotation Yrotation Zrotation
										JOINT LFinger42
										{
											OFFSET 1.759100 -0.366300 -0.485900 
											CHANNELS 3 Xrotation Yrotation Zrotation
											End Site
											{
												OFFSET 1.561300 -0.429000 -0.358200 
											}
										}
									}
								}
								JOINT LFinger0
								{
									OFFSET 1.922400 -1.455000 1.457400 
									CHANNELS 3 Xrotation Yrotation Zrotation
									JOINT LFinger01
									{
										OFFSET 3.579100 -1.175400 2.698400 
										CHANNELS 3 Xrotation Yrotation Zrotation
										JOINT LFinger02
										{
											OFFSET 2.356800 -0.843300 1.698000 
											CHANNELS 3 Xrotation Yrotation Zrotation
											End Site
											{
												OFFSET 1.733100 -0.596600 1.186700 
											}
										}
									}
								}
							}
						}
					}
				}
				JOINT RClavicle
				{
					OFFSET -2.316100 22.139000 7.585000 
					CHANNELS 3 Xrotation Yrotation Zrotation
					JOINT RShoulder
					{
						OFFSET -13.533200 3.176200 -5.139300 
						CHANNELS 3 Xrotation Yrotation Zrotation
						JOINT RForearm
						{
							OFFSET -28.742001 -0.102000 -0.249000 
							CHANNELS 3 Xrotation Yrotation Zrotation
							JOINT RHand
							{
								OFFSET -23.976999 0.069600 -0.143600 
								CHANNELS 3 Xrotation Yrotation Zrotation
								JOINT RFinger1
								{
									OFFSET -9.292800 0.812800 2.581100 
									CHANNELS 3 Xrotation Yrotation Zrotation
									JOINT RFinger11
									{
										OFFSET -3.476000 -0.847600 0.612500 
										CHANNELS 3 Xrotation Yrotation Zrotation
										JOINT RFinger12
										{
											OFFSET -2.372900 -0.578900 0.418300 
											CHANNELS 3 Xrotation Yrotation Zrotation
											End Site
											{
												OFFSET -1.688600 -0.504100 0.273900 
											}
										}
									}
								}
								JOINT RFinger2
								{
									OFFSET -9.431500 0.938600 0.224700 
									CHANNELS 3 Xrotation Yrotation Zrotation
									JOINT RFinger21
									{
										OFFSET -4.297900 0.012000 -0.025400 
										CHANNELS 3 Xrotation Yrotation Zrotation
										JOINT RFinger22
										{
											OFFSET -2.382300 0.007300 -0.014600 
											CHANNELS 3 Xrotation Yrotation Zrotation
											End Site
											{
												OFFSET -2.139700 -0.151100 0.002900 
											}
										}
									}
								}
								JOINT RFinger3
								{
									OFFSET -8.938300 0.626400 -2.114700 
									CHANNELS 3 Xrotation Yrotation Zrotation
									JOINT RFinger31
									{
										OFFSET -3.899800 -0.197400 -0.244200 
										CHANNELS 3 Xrotation Yrotation Zrotation
										JOINT RFinger32
										{
											OFFSET -2.222300 -0.111800 -0.139600 
											CHANNELS 3 Xrotation Yrotation Zrotation
											End Site
											{
												OFFSET -1.964900 -0.241600 -0.092900 
											}
										}
									}
								}
								JOINT RFinger4
								{
									OFFSET -8.294400 -0.630300 -3.652000 
									CHANNELS 3 Xrotation Yrotation Zrotation
									JOINT RFinger41
									{
										OFFSET -2.398800 -0.500200 -0.662200 
										CHANNELS 3 Xrotation Yrotation Zrotation
										JOINT RFinger42
										{
											OFFSET -1.759000 -0.366200 -0.485900 
											CHANNELS 3 Xrotation Yrotation Zrotation
											End Site
											{
												OFFSET -1.561300 -0.429000 -0.358200 
											}
										}
									}
								}
								JOINT RFinger0
								{
									OFFSET -1.922400 -1.454900 1.457200 
									CHANNELS 3 Xrotation Yrotation Zrotation
									JOINT RFinger01
									{
										OFFSET -3.579100 -1.175600 2.698500 
										CHANNELS 3 Xrotation Yrotation Zrotation
										JOINT RFinger02
										{
											OFFSET -2.356700 -0.843200 1.697900 
											CHANNELS 3 Xrotation Yrotation Zrotation
											End Site
											{
												OFFSET -1.733100 -0.596600 1.186700 
											}
										}
									}
								}
							}
						}
					}
				}
			}
		}
	}
	JOINT RThigh
	{
		OFFSET -9.644200 4.075200 -0.795000 
		CHANNELS 3 Xrotation Yrotation Zrotation
		JOINT RShin
		{
			OFFSET -0.771700 -41.948101 0.000000 
			CHANNELS 3 Xrotation Yrotation Zrotation
			JOINT RFoot
			{
				OFFSET 0.000000 -41.190498 0.000000 
				CHANNELS 3 Xrotation Yrotation Zrotation
				JOINT RToe
				{
					OFFSET 0.000000 -4.527200 9.467000 
					CHANNELS 3 Xrotation Yrotation Zrotation
					End Site
					{
						OFFSET 0.000000 0.000000 6.351000 
					}
				}
			}
		}
	}
	JOINT LThigh
	{
		OFFSET 9.644100 4.075500 -0.795000 
		CHANNELS 3 Xrotation Yrotation Zrotation
		JOINT LShin
		{
			OFFSET 0.771800 -41.948399 0.000000 
			CHANNELS 3 Xrotation Yrotation Zrotation
			JOINT LFoot
			{
				OFFSET 0.000000 -41.190498 0.000000 
				CHANNELS 3 Xrotation Yrotation Zrotation
				JOINT LToe
				{
					OFFSET 0.000000 -4.527200 9.467000 
					CHANNELS 3 Xrotation Yrotation Zrotation
					End Site
					{
						OFFSET 0.000000 0.000000 6.351000 
					}
				}
			}
		}
	}
}
MOTION
Frames: 6
Frame Time: 0.033333
0.000000 83.590599 0.000000 0.000000 0.000000 0.000000 0.000000 0.000000 0.000000 3.291747 -2.167268 -1.422227 3.291747 -2.167268 -1.422227 0.000000 0.000000 0.000000 0.000000 0.000000 0.000000 0.000000 0.000000 -12.483690 0.884176 -31.779881 -54.021999 0.000000 -33.120152 0.000000 0.000000 0.000000 0.000000 0.000000 0.000000 0.000000 0.000000 0.000000 0.000000 0.000000 0.000000 0.000000 0.000000 0.000000 0.000000 0.000000 0.000000 0.000000 0.000000 0.000000 0.000000 0.000000 0.000000 0.000000 0.000000 0.000000 0.000000 0.000000 0.000000 0.000000 0.000000 0.000000 0.000000 0.000000 0.000000 0.000000 0.000000 0.000000 0.000000 0.000000 0.000000 0.000000 0.000000 0.000000 0.000000 0.000000 0.000000 0.000000 0.000000 0.000000 15.093530 17.451700 10.299080 60.828789 0.000000 32.952599 0.000000 0.000000 0.000000 0.000000 0.000000 0.000000 0.000000 0.000000 0.000000 0.000000 0.000000 0.000000 0.000000 0.000000 0.000000 0.000000 0.000000 0.000000 0.000000 0.000000 0.000000 0.000000 0.000000 0.000000 0.000000 0.000000 0.000000 0.000000 0.000000 0.000000 0.000000 0.000000 0.000000 0.000000 0.000000 0.000000 0.000000 0.000000 0.000000 0.000000 0.000000 0.000000 0.000000 0.000000 0.000000 0.000000 0.000000 0.000000 0.000000 -12.077480 -6.117800 0.544756 1.095016 0.000000 0.000000 8.452671 6.853176 2.681548 0.000000 0.000000 0.000000 10.844540 10.110910 -6.993502 7.072546 0.000001 0.000000 -14.232670 3.223961 2.065137 0.000000 0.000000 0.000000 
0.000000 83.590599 0.000000 0.000000 0.000000 0.000000 0.000000 0.000000 0.000000 3.299613 -2.207201 -1.305245 3.299613 -2.207201 -1.305245 0.000000 0.000000 0.000000 0.000000 0.000000 0.000000 0.000000 0.000000 -12.541610 0.521289 -32.127140 -54.935822 0.000000 -31.933599 0.000000 0.000000 0.000000 0.000000 0.000000 0.000000 0.000000 0.000000 0.000000 0.000000 0.000000 0.000000 0.000000 0.000000 0.000000 0.000000 0.000000 0.000000 0.000000 0.000000 0.000000 0.000000 0.000000 0.000000 0.000000 0.000000 0.000000 0.000000 0.000000 0.000000 0.000000 0.000000 0.000000 0.000000 0.000000 0.000000 0.000000 0.000000 0.000000 0.000000 0.000000 0.000000 0.000000 0.000000 0.000000 0.000000 0.000000 0.000000 0.000000 0.000000 0.000000 15.047760 18.293200 9.719255 61.442280 0.000000 33.408180 0.000000 0.000000 0.000000 0.000000 0.000000 0.000000 0.000000 0.000000 0.000000 0.000000 0.000000 0.000000 0.000000 0.000000 0.000000 0.000000 0.000000 0.000000 0.000000 0.000000 0.000000 0.000000 0.000000 0.000000 0.000000 0.000000 0.000000 0.000000 0.000000 0.000000 0.000000 0.000000 0.000000 0.000000 0.000000 0.000000 0.000000 0.000000 0.000000 0.000000 0.000000 0.000000 0.000000 0.000000 0.000000 0.000000 0.000000 0.000000 0.000000 -11.664200 -6.335755 1.210832 1.031414 0.000000 0.000000 10.110070 7.624840 2.868870 0.000000 0.000000 0.000000 11.913650 9.638375 -6.782210 6.964744 0.000001 0.000000 -15.568570 2.343217 1.537248 0.000000 0.000000 0.000000 
0.000000 83.590599 0.000000 0.000000 0.000000 0.000000 0.000000 0.000000 0.000000 3.253165 -2.176595 -1.158005 3.253165 -2.176595 -1.158005 0.000000 0.000000 0.000000 0.000000 0.000000 0.000000 0.000000 0.000000 -12.661270 0.415184 -32.242210 -55.773960 0.000000 -31.079639 0.000000 0.000000 0.000000 0.000000 0.000000 0.000000 0.000000 0.000000 0.000000 0.000000 0.000000 0.000000 0.000000 0.000000 0.000000 0.000000 0.000000 0.000000 0.000000 0.000000 0.000000 0.000000 0.000000 0.000000 0.000000 0.000000 0.000000 0.000000 0.000000 0.000000 0.000000 0.000000 0.000000 0.000000 0.000000 0.000000 0.000000 0.000000 0.000000 0.000000 0.000000 0.000000 0.000000 0.000000 0.000000 0.000000 0.000000 0.000000 0.000000 0.000000 0.000000 15.006010 18.824471 9.635285 62.121151 0.000000 32.653160 0.000000 0.000000 0.000000 0.000000 0.000000 0.000000 0.000000 0.000000 0.000000 0.000000 0.000000 0.000000 0.000000 0.000000 0.000000 0.000000 0.000000 0.000000 0.000000 0.000000 0.000000 0.000000 0.000000 0.000000 0.000000 0.000000 0.000000 0.000000 0.000000 0.000000 0.000000 0.000000 0.000000 0.000000 0.000000 0.000000 0.000000 0.000000 0.000000 0.000000 0.000000 0.000000 0.000000 0.000000 0.000000 0.000000 0.000000 0.000000 0.000000 -11.297810 -6.596962 1.756002 2.330212 0.000000 0.000000 10.377060 5.963246 2.232782 0.000000 0.000000 0.000000 12.914450 9.242792 -6.429071 6.950784 0.000001 0.000000 -16.599859 1.038349 0.701213 0.000000 0.000000 0.000000 
0.000000 83.590599 0.000000 0.000000 0.000000 0.000000 0.000000 0.000000 0.000000 3.173123 -2.066791 -0.966406 3.173123 -2.066791 -0.966406 0.000000 0.000000 0.000000 0.000000 0.000000 0.000000 0.000000 0.000000 -12.845680 0.444331 -32.300251 -56.660301 0.000000 -29.976601 0.000000 0.000000 0.000000 0.000000 0.000000 0.000000 0.000000 0.000000 0.000000 0.000000 0.000000 0.000000 0.000000 0.000000 0.000000 0.000000 0.000000 0.000000 0.000000 0.000000 0.000000 0.000000 0.000000 0.000000 0.000000 0.000000 0.000000 0.000000 0.000000 0.000000 0.000000 0.000000 0.000000 0.000000 0.000000 0.000000 0.000000 0.000000 0.000000 0.000000 0.000000 0.000000 0.000000 0.000000 0.000000 0.000000 0.000000 0.000000 0.000000 0.000000 0.000000 14.981420 19.119350 9.713103 62.599380 0.000000 30.975130 0.000000 0.000000 0.000000 0.000000 0.000000 0.000000 0.000000 0.000000 0.000000 0.000000 0.000000 0.000000 0.000000 0.000000 0.000000 0.000000 0.000000 0.000000 0.000000 0.000000 0.000000 0.000000 0.000000 0.000000 0.000000 0.000000 0.000000 0.000000 0.000000 0.000000 0.000000 0.000000 0.000000 0.000000 0.000000 0.000000 0.000000 0.000000 0.000000 0.000000 0.000000 0.000000 0.000000 0.000000 0.000000 0.000000 0.000000 0.000000 0.000000 -11.180220 -6.877277 2.064078 4.420496 0.000000 0.000000 8.355462 4.121871 1.596177 0.000000 0.000000 0.000000 13.892230 8.954653 -6.058725 6.821825 0.000001 0.000000 -16.985720 -0.045186 -0.023272 0.000000 0.000000 0.000000 
0.000000 83.590599 0.000000 0.000000 0.000000 0.000000 0.000000 0.000000 0.000000 3.081095 -1.873065 -0.720393 3.081095 -1.873065 -0.720393 0.000000 0.000000 0.000000 0.000000 0.000000 0.000000 0.000000 0.000000 -13.089430 1.225723 -31.371599 -57.359840 0.000000 -29.974489 0.000000 0.000000 0.000000 0.000000 0.000000 0.000000 0.000000 0.000000 0.000000 0.000000 0.000000 0.000000 0.000000 0.000000 0.000000 0.000000 0.000000 0.000000 0.000000 0.000000 0.000000 0.000000 0.000000 0.000000 0.000000 0.000000 0.000000 0.000000 0.000000 0.000000 0.000000 0.000000 0.000000 0.000000 0.000000 0.000000 0.000000 0.000000 0.000000 0.000000 0.000000 0.000000 0.000000 0.000000 0.000000 0.000000 0.000000 0.000000 0.000000 0.000000 0.000000 14.983910 19.129570 10.004640 62.870090 0.000000 29.207270 0.000000 0.000000 0.000000 0.000000 0.000000 0.000000 0.000000 0.000000 0.000000 0.000000 0.000000 0.000000 0.000000 0.000000 0.000000 0.000000 0.000000 0.000000 0.000000 0.000000 0.000000 0.000000 0.000000 0.000000 0.000000 0.000000 0.000000 0.000000 0.000000 0.000000 0.000000 0.000000 0.000000 0.000000 0.000000 0.000000 0.000000 0.000000 0.000000 0.000000 0.000000 0.000000 0.000000 0.000000 0.000000 0.000000 0.000000 0.000000 0.000000 -11.047180 -7.176378 2.227292 6.354445 0.000001 0.000000 5.127471 3.773947 1.587039 0.000000 0.000000 0.000000 14.661690 8.831511 -5.768085 7.045502 0.000001 0.000000 -16.885031 -0.325235 -0.215928 0.000000 0.000000 0.000000 
0.000000 83.590599 0.000000 0.000000 0.000000 0.000000 0.000000 0.000000 0.000000 2.994171 -1.605047 -0.420837 2.994171 -1.605047 -0.420837 0.000000 0.000000 0.000000 0.000000 0.000000 0.000000 0.000000 0.000000 -13.376030 2.791988 -29.342810 -57.767441 0.000000 -31.560141 0.000000 0.000000 0.000000 0.000000 0.000000 0.000000 0.000000 0.000000 0.000000 0.000000 0.000000 0.000000 0.000000 0.000000 0.000000 0.000000 0.000000 0.000000 0.000000 0.000000 0.000000 0.000000 0.000000 0.000000 0.000000 0.000000 0.000000 0.000000 0.000000 0.000000 0.000000 0.000000 0.000000 0.000000 0.000000 0.000000 0.000000 0.000000 0.000000 0.000000 0.000000 0.000000 0.000000 0.000000 0.000000 0.000000 0.000000 0.000000 0.000000 0.000000 0.000000 15.003220 18.691231 10.918500 63.086040 0.000000 27.836300 0.000000 0.000000 0.000000 0.000000 0.000000 0.000000 0.000000 0.000000 0.000000 0.000000 0.000000 0.000000 0.000000 0.000000 0.000000 0.000000 0.000000 0.000000 0.000000 0.000000 0.000000 0.000000 0.000000 0.000000 0.000000 0.000000 0.000000 0.000000 0.000000 0.000000 0.000000 0.000000 0.000000 0.000000 0.000000 0.000000 0.000000 0.000000 0.000000 0.000000 0.000000 0.000000 0.000000 0.000000 0.000000 0.000000 0.000000 0.000000 0.000000 -10.777620 -7.493180 2.366770 7.822733 0.000001 0.000000 2.357290 4.508803 2.039189 0.000000 0.000000 0.000000 14.974520 8.903406 -5.493285 8.083376 0.000001 0.000000 -16.176559 -0.546571 -0.367225 0.000000 0.000000 0.000000 
